<svg xmlns="http://www.w3.org/2000/svg" viewBox="0 0 100 100">
  <circle cx="50" cy="50" r="50" fill="#EC4899"/>
  <ellipse cx="50" cy="18" rx="7" ry="11" fill="rgba(255,255,255,0.25)"/>
  <ellipse cx="50" cy="18" rx="7" ry="11" fill="rgba(255,255,255,0.25)" transform="rotate(60 50 50)"/>
  <ellipse cx="50" cy="18" rx="7" ry="11" fill="rgba(255,255,255,0.25)" transform="rotate(120 50 50)"/>
  <ellipse cx="50" cy="18" rx="7" ry="11" fill="rgba(255,255,255,0.25)" transform="rotate(180 50 50)"/>
  <ellipse cx="50" cy="18" rx="7" ry="11" fill="rgba(255,255,255,0.25)" transform="rotate(240 50 50)"/>
  <ellipse cx="50" cy="18" rx="7" ry="11" fill="rgba(255,255,255,0.25)" transform="rotate(300 50 50)"/>
  <ellipse cx="50" cy="80" rx="22" ry="14" fill="rgba(255,255,255,0.25)"/>
  <circle cx="50" cy="38" r="14" fill="rgba(255,255,255,0.9)"/>
  <circle cx="45" cy="36" r="2" fill="#EC4899"/>
  <circle cx="55" cy="36" r="2" fill="#EC4899"/>
  <path d="M44 42 Q50 47 56 42" stroke="#EC4899" stroke-width="1.8" fill="none" stroke-linecap="round"/>
</svg>
